<svg xmlns="http://www.w3.org/2000/svg"  viewBox="0 0 64 64" width="64px" height="64px"><g data-name="Layer 1"><path fill="#85cbf8" d="M7 57H5a2 2 0 0 1-2-2V49.33C3 44 5.9 41.87 8 40M56 40c2.49 1.87 5 4 5 9.33V55a2 2 0 0 1-2 2H57"/><path fill="#8d6c9f" d="M7 58H5a3 3 0 0 1-3-3V49.33c0-5.41 2.82-7.88 4.88-9.68l.45-.4a1 1 0 0 1 1.34 1.5l-.47.41c-2 1.72-4.2 3.67-4.2 8.17V55a1 1 0 0 0 1 1H7a1 1 0 0 1 0 2zM59 58H57a1 1 0 0 1 0-2h2a1 1 0 0 0 1-1V49.33c0-4.71-2-6.57-4.6-8.53a1 1 0 0 1 1.2-1.6c2.85 2.13 5.4 4.52 5.4 10.13V55A3 3 0 0 1 59 58z"/><path fill="#faefde" d="M18.76,21.12C18.76,31.55,24.06,39,32,39s13-7.57,13-18c0-2.67-1-6-.64-7.34C44.55,13,44,13,47,14,43,4,37.84,3,32,3c-3.39,0-5.91.58-8,2C19,5,18.76,13.66,18.76,21.12Z"/><path fill="#f9dd8f" d="M26,11c0,1.76,9.35,4,12,4,3.89,0,6,0,6-1,0,0,2-1,3,0C44,5,37.06,3,34,3H30a8.58,8.58,0,0,0-5,2c-2.8-.9-6,2.49-6,7v6C22,17,26,11.88,26,11Z"/><path fill="#faefde" d="M19.65 20C17.88 17.27 17 18.33 17 21.29S17.88 28 21.41 28M44.35 20C46.12 17.27 47 18.33 47 21.29S46.12 28 42.59 28"/><path fill="#8d6c9f" d="M27.92,12.88A21.05,21.05,0,0,0,37.11,15h2.55a1,1,0,0,0,0-2H37.11a19,19,0,0,1-8.32-1.92l-1.56-.76a2,2,0,0,0-2.55.7l-1.6,2.43a1,1,0,0,0,1.67,1.1l1.6-2.43Z"/><path fill="#8d6c9f" d="M46.28,18.12a1.54,1.54,0,0,0-.43-.06,15.21,15.21,0,0,0-.92-3.44v-.11a5.5,5.5,0,0,1,1.38.36,1,1,0,0,0,1.31-.54,1,1,0,0,0,.05-.6C46,6.41,40.56,2,33,2H32a14.57,14.57,0,0,0-7.31,2C21,4.14,18.42,6.76,18,10.9a23.32,23.32,0,0,0,.13,5.6,8.26,8.26,0,0,1,.09,1,1.82,1.82,0,0,1-.09.56,1.61,1.61,0,0,0-.44.06c-1.65.44-2.34,2.85-1.6,5.61a5.86,5.86,0,0,0,2.88,4A23.1,23.1,0,0,0,20.37,31q1.17.09,2.34.15a22.13,22.13,0,0,1-2-4.56,1,1,0,0,0-.95-.72h0c-.29,0-1.24-.78-1.73-2.62s-.05-3.09.18-3.15a.66.66,0,0,1,.27.12,1,1,0,0,0,1.53-.8,11.34,11.34,0,0,1,.17-1.54,6,6,0,0,0-.08-1.64A21.14,21.14,0,0,1,20,11.1C20.31,7.91,22.19,6,25,6a1,1,0,0,0,.6-.2A12,12,0,0,1,32,4h1c6.07,0,10.45,3.1,12.25,8.58a2.29,2.29,0,0,0-1.9.48,2,2,0,0,0-.29,2.3,12.09,12.09,0,0,1,.9,4.07,1,1,0,0,0,1,.95,1.09,1.09,0,0,0,.49-.16.66.66,0,0,1,.27-.12c.24.08.68,1.3.18,3.15s-1.44,2.62-1.73,2.62a1,1,0,0,0-1,.72,21,21,0,0,1-1.91,4.49h1.63a3.08,3.08,0,0,1,.61.06A23.28,23.28,0,0,0,45,27.73c1.23-.46,2.35-2,2.88-4C48.62,21,47.88,18.57,46.28,18.12Z"/><rect width="48" height="30" x="8" y="31" fill="#b5c4e0" rx="2"/><path fill="#acb7d0" d="M8 56H56V61H8z"/><path fill="#8d6c9f" d="M54,62H10a3,3,0,0,1-3-3V33a3,3,0,0,1,3-3H54a3,3,0,0,1,3,3V59A3,3,0,0,1,54,62ZM10,32a1,1,0,0,0-1,1V59a1,1,0,0,0,1,1H54a1,1,0,0,0,1-1V33a1,1,0,0,0-1-1Z"/><path fill="#8d6c9f" d="M12 58a1 1 0 0 1-1-1V55a1 1 0 0 1 2 0v2A1 1 0 0 1 12 58zM17 58a1 1 0 0 1-1-1V55a1 1 0 0 1 2 0v2A1 1 0 0 1 17 58zM22 58a1 1 0 0 1-1-1V55a1 1 0 0 1 2 0v2A1 1 0 0 1 22 58zM27 58a1 1 0 0 1-1-1V55a1 1 0 0 1 2 0v2A1 1 0 0 1 27 58zM32 58a1 1 0 0 1-1-1V55a1 1 0 0 1 2 0v2A1 1 0 0 1 32 58zM37 58a1 1 0 0 1-1-1V55a1 1 0 0 1 2 0v2A1 1 0 0 1 37 58zM42 58a1 1 0 0 1-1-1V55a1 1 0 0 1 2 0v2A1 1 0 0 1 42 58zM47 58a1 1 0 0 1-1-1V55a1 1 0 0 1 2 0v2A1 1 0 0 1 47 58zM52 58a1 1 0 0 1-1-1V55a1 1 0 0 1 2 0v2A1 1 0 0 1 52 58z"/><path fill="#e3f2ff" d="M32 41A4 4 0 1 0 32 49A4 4 0 1 0 32 41Z"/><path fill="#8d6c9f" d="M32,50a5,5,0,1,1,5-5A5,5,0,0,1,32,50Zm0-8a3,3,0,1,0,3,3A3,3,0,0,0,32,42Z"/></g></svg>